<svg width="20" height="16" viewBox="0 0 20 16" fill="none" xmlns="http://www.w3.org/2000/svg">
<path d="M7.9895 13.0908C6.95563 13.0908 6.10974 13.7454 6.10974 14.5454C6.10974 15.3454 6.95563 15.9999 7.9895 15.9999C9.02337 15.9999 9.86926 15.3454 9.86926 14.5454C9.86926 13.7454 9.02337 13.0908 7.9895 13.0908ZM7.9895 15.2726C7.47257 15.2726 7.04962 14.9454 7.04962 14.5454C7.04962 14.1454 7.47257 13.8181 7.9895 13.8181C8.50644 13.8181 8.92938 14.1454 8.92938 14.5454C8.92938 14.9454 8.50644 15.2726 7.9895 15.2726Z" fill="white"/>
<path d="M16.4475 13.0908C15.4137 13.0908 14.5679 13.7454 14.5679 14.5454C14.5679 15.3454 15.4137 15.9999 16.4475 15.9999C17.4813 15.9999 18.3271 15.3454 18.3271 14.5454C18.3271 13.7454 17.4813 13.0908 16.4475 13.0908ZM16.4475 15.2726C15.9306 15.2726 15.5077 14.9454 15.5077 14.5454C15.5077 14.1454 15.9306 13.8181 16.4475 13.8181C16.9644 13.8181 17.3873 14.1454 17.3873 14.5454C17.3873 14.9454 16.9644 15.2726 16.4475 15.2726Z" fill="white"/>
<path d="M19.5497 2.69091C19.2208 2.36364 18.6569 2.18182 18.093 2.18182H5.07604L4.88807 1.23636C4.74709 0.545455 3.94822 0 3.00837 0H0.000854492V0.727273H3.00837C3.4783 0.727273 3.90123 0.981818 3.94822 1.34545L5.92191 11.2C6.10988 11.8909 6.90875 12.4 7.80161 12.4H17.858V11.6727H7.80161C7.33168 11.6727 6.95574 11.4182 6.86176 11.0545L6.67379 10.1818H17.1061C17.999 10.1818 18.7978 9.67273 18.9858 8.90909L19.9727 3.81818C20.0666 3.41818 19.9257 3.01818 19.5497 2.69091ZM19.0328 3.74545L18.046 8.83636C17.952 9.23636 17.576 9.49091 17.1061 9.49091H6.53281L5.21702 2.94545H18.093C18.3749 2.94545 18.6569 3.05455 18.8448 3.2C19.0328 3.30909 19.0798 3.52727 19.0328 3.74545Z" fill="white"/>
</svg>
