<svg width="9" height="16" viewBox="0 0 9 16" fill="none" xmlns="http://www.w3.org/2000/svg">
<path d="M4.50007 0C2.01892 0 0.000473022 2.09643 0.000473022 4.73929C0.000473022 5.325 0.117825 5.96429 0.329058 6.53929H0.325704L0.345822 6.58214C0.362587 6.62143 0.379351 6.66071 0.396116 6.7L4.50007 16L8.5839 6.74643L8.60402 6.70357C8.62078 6.66429 8.6409 6.625 8.65767 6.58214L8.67108 6.54286C8.88902 5.96786 8.99966 5.36071 8.99966 4.74643C8.99966 2.09643 6.98122 0 4.50007 0ZM8.15808 6.33571L8.15138 6.35357C8.14132 6.375 8.13126 6.4 8.1212 6.42143L8.08767 6.49643L4.50007 14.6179L0.909109 6.49643L0.878933 6.425C0.868875 6.40357 0.858816 6.38214 0.85211 6.36071C0.654289 5.84286 0.546996 5.26786 0.546996 4.73929C0.546996 2.41786 2.32068 0.578571 4.50342 0.578571C6.68616 0.578571 8.45985 2.41429 8.45985 4.73929C8.45649 5.28214 8.35591 5.81786 8.15808 6.33571Z" fill="white"/>
<path d="M4.50081 2C3.12213 2 2.00122 3.12109 2.00122 4.5C2.00122 5.87891 3.12213 7 4.50081 7C5.87949 7 7.0004 5.87891 7.0004 4.5C7.0004 3.12109 5.87949 2 4.50081 2ZM4.50081 6.33203C3.48926 6.33203 2.66908 5.51172 2.66908 4.5C2.66908 3.48828 3.48926 2.66797 4.50081 2.66797C5.51236 2.66797 6.33254 3.48828 6.33254 4.5C6.33254 5.51172 5.51236 6.33203 4.50081 6.33203Z" fill="white"/>
</svg>
